{"title":"Furry.Vengeance.2010.cam.LU","uid":5550550,"size":720938408,"categoryP":"video","categoryS":"movies","magnet":"?xt=urn:btih:4f7998fdf4459b8a31fe44294ed41944494f4082&amp;dn=Furry.Vengeance.2010.cam.LU&amp;tr=udp%3A%2F%2Ftracker.openbittorrent.com%3A80&amp;tr=udp%3A%2F%2Fopen.demonii.com%3A1337&amp;tr=udp%3A%2F%2Ftracker.coppersurfer.tk%3A6969&amp;tr=udp%3A%2F%2Fexodus.desync.com%3A6969","seeders":0,"leechers":0,"uploader":".BONE.","files":1,"time":1273525283,"description":"\nGeneral\nComplete name : Furry.Vengeance.cam.LU.2010\nFormat : AVI\nFormat/Info : Audio Video Interleave\nFile size : 688 MiB\nDuration : 1h 23mn\nOverall bit rate : 1 152 Kbps\nWriting application : VirtualDubMod 1.5.10.2 (build 2540/release)\nWriting library : VirtualDub build 32706/release\n\nVideo\nID : 0\nFormat : MPEG-4 Visual\nFormat settings, BVOP : Yes\nFormat settings, QPel : No\nFormat settings, GMC : No warppoints\nFormat settings, Matrix : Default (H.263)\nMuxing mode : Packed bitstream\nCodec ID : DX50\nCodec ID/Hint : DivX 5\nDuration : 1h 23mn\nBit rate : 1 014 Kbps\nWidth : 640 pixels\nHeight : 288 pixels\nDisplay aspect ratio : 2.222\nFrame rate : 25.000 fps\nResolution : 8 bits\nColorimetry : 4:2:0\nScan type : Progressive\nBits/(Pixel*Frame) : 0.220\nStream size : 605 MiB (88%)\nWriting library : DivX 6.8.5 (UTC 2009-08-20)\n\nAudio\nID : 1\nFormat : MPEG Audio\nFormat version : Version 1\nFormat profile : Layer 3\nCodec ID : 55\nCodec ID/Hint : MP3\nDuration : 1h 23mn\nBit rate mode : Constant\nBit rate : 128 Kbps\nChannel(s) : 2 channels\nSampling rate : 44.1 KHz\nStream size : 76.4 MiB (11%)\nAlignment : Split accross interleaves\nInterleave, duration : 40 ms (1.00 video frame)\nInterleave, preload duration : 500 ms\nWriting library : LAME3.98.2\n\nNotes\nWell the pic was really blurry so sharpen up a bit but only helped\na little, but made more watchable, also pic was yellow thru out\nso gave color back.\n\nThis is complete video i know there was another released that\nwas missing like 13 minutes lol, added my own cam audio so has entire\nenglish audio.","torrent":{"xt":"urn:btih:4f7998fdf4459b8a31fe44294ed41944494f4082","amp;dn":"Furry.Vengeance.2010.cam.LU","amp;tr":["udp%3A%2F%2Ftracker.openbittorrent.com%3A80","udp%3A%2F%2Fopen.demonii.com%3A1337","udp%3A%2F%2Ftracker.coppersurfer.tk%3A6969","udp%3A%2F%2Fexodus.desync.com%3A6969"],"infoHash":"4f7998fdf4459b8a31fe44294ed41944494f4082","infoHashBuffer":{"type":"Buffer","data":[79,121,152,253,244,69,155,138,49,254,68,41,78,212,25,68,73,79,64,130]},"announce":[],"urlList":[]}}